# xmcd
#
# Track frame offsets:
#	150
#	25263
#	42226
#	64672
#	77311
#	100292
#	119051
#	136610
#	176976
#	193214
#	211798
#
# Disc length: 3329 seconds
#
# Revision: 0
# Processed by: cddbd v1.5.2PL0 Copyright (c) Steve Scherf et al.
# Submitted via: EasyCDDAExtractor 8.1.0.1
#
DISCID=950cff0b
DTITLE=The Biscuit Rollers - Live im Chicago Zug
DYEAR=2007
DGENRE=
TTITLE0=Blues this morning
TTITLE1=Looking out the window
TTITLE2=She's got it
TTITLE3=Walking to my baby
TTITLE4=Be home soon
TTITLE5=Mary had a little lamb
TTITLE6=One Kiss
TTITLE7=Too many girlfriends
TTITLE8=I loved another woman
TTITLE9=Lost in your lovin'
TTITLE10=Leave my little girl alone
EXTD=
EXTT0=
EXTT1=
EXTT2=
EXTT3=
EXTT4=
EXTT5=
EXTT6=
EXTT7=
EXTT8=
EXTT9=
EXTT10=
PLAYORDER=
